<?xml version="1.0" encoding="UTF-8"?>
<svg width="1000px" height="1000px" viewBox="0 0 1000 1000" version="1.1" xmlns="http://www.w3.org/2000/svg" xmlns:xlink="http://www.w3.org/1999/xlink">
    <title>logo</title>
    <g id="页面-1" stroke="none" stroke-width="1" fill="none" fill-rule="evenodd">
        <g id="logo">
            <rect id="矩形" x="0" y="0" width="1000" height="1000"></rect>
            <path d="M390.34712,188.368705 L206.127661,588.200487 C224.833191,588.200487 258.176449,590.524004 288.921591,610.672685 L514.981253,285.493606 C534.90985,254.79207 550.248893,198.723195 515.25916,164.904165 C480.27045,131.102518 406.453472,144.879208 390.34712,188.368705 Z M829.662247,618.802828 L430.122561,803.156966 C430.122561,784.43776 427.800742,751.070126 407.66678,720.302507 L732.608301,494.077577 C763.287408,474.134411 819.315322,458.784154 853.109645,493.799467 C886.886599,528.813757 873.119973,602.684701 829.662247,618.802828 Z M550.755665,341.158608 L327.953969,636.859244 C327.953969,636.859244 341.919703,647.363151 357.024773,661.57745 C372.129842,675.791749 379.712646,687.973178 379.712646,687.973178 C547.80652,557.8252 645.484189,478.622799 672.745651,450.365975 C713.637845,407.98074 740.98019,360.88184 695.504572,316.943482 C660.425951,276.217706 593.460385,288.988389 550.755665,341.158608 Z M382.488013,834.992509 C406.350221,810.274434 381.418274,752.041002 325.421012,697.930146 C269.458487,643.855076 210.429789,620.921202 186.585971,645.639276 C135.474561,698.60804 136.651579,788.466293 189.136178,839.186657 C241.620776,889.905999 331.394993,887.942868 382.506403,834.992509 L382.488013,834.992509 Z" id="形状" stroke="#2196F3" stroke-width="10.225325" fill="#2196F3" fill-rule="nonzero" stroke-linecap="round" stroke-linejoin="round"></path>
        </g>
    </g>
</svg>